<?xml version="1.0" standalone="no"?>
<!DOCTYPE svg PUBLIC "-//W3C//DTD SVG 20010904//EN"
 "http://www.w3.org/TR/2001/REC-SVG-20010904/DTD/svg10.dtd">
<svg version="1.0" xmlns="http://www.w3.org/2000/svg"
 width="1112.000000pt" height="1112.000000pt" viewBox="0 0 1112.000000 1112.000000"
 preserveAspectRatio="xMidYMid meet">
<metadata>
Created by potrace 1.14, written by Peter Selinger 2001-2017
</metadata>
<g transform="translate(0.000000,1112.000000) scale(0.100000,-0.100000)"
fill="#000000" stroke="none">
<path d="M5435 11102 c-89 -26 -228 -134 -293 -228 -16 -24 -56 -106 -58 -119
-1 -5 -3 -12 -4 -15 -17 -46 -20 -237 -3 -279 7 -18 13 -40 13 -47 0 -24 72
-128 122 -176 45 -43 48 -48 30 -57 -11 -6 -36 -11 -56 -13 -20 -1 -36 -6 -36
-12 0 -5 -3 -7 -6 -3 -3 3 -18 1 -33 -5 -14 -5 -37 -12 -51 -14 -51 -9 -81
-27 -96 -59 -9 -19 -30 -40 -50 -50 -46 -22 -58 -48 -60 -130 -1 -38 -5 -86
-7 -105 -3 -19 -8 -64 -12 -100 -4 -36 -8 -76 -10 -90 -2 -14 -7 -43 -10 -65
-10 -67 -8 -146 5 -235 12 -86 13 -138 4 -181 -2 -13 -7 -49 -10 -79 -6 -69
-21 -165 -38 -245 -13 -64 -57 -149 -95 -185 -29 -28 -111 -76 -111 -65 0 3
-9 1 -21 -5 -11 -7 -33 -13 -47 -15 -26 -3 -56 -9 -119 -20 -16 -3 -51 -11
-80 -19 -28 -8 -54 -11 -57 -8 -3 3 -6 -1 -6 -8 0 -7 -3 -11 -6 -7 -4 3 -23 0
-43 -8 -20 -7 -90 -30 -156 -50 -66 -20 -129 -40 -140 -45 -11 -4 -63 -24
-115 -43 -52 -20 -113 -43 -135 -53 -22 -10 -43 -19 -47 -20 -5 -1 -11 -3 -15
-4 -5 -1 -11 -2 -15 -1 -5 0 -8 -4 -8 -9 0 -6 -4 -10 -9 -10 -5 0 -40 -14 -78
-32 -37 -17 -70 -30 -72 -29 -2 2 -7 -1 -10 -6 -3 -4 -35 -23 -71 -41 -57 -28
-111 -57 -225 -120 -16 -10 -36 -23 -43 -29 -7 -7 -19 -13 -27 -13 -7 0 -15
-4 -17 -8 -1 -4 -28 -23 -58 -41 -50 -30 -263 -180 -307 -215 -10 -8 -47 -38
-83 -68 -36 -29 -73 -60 -84 -68 -85 -69 -347 -327 -427 -421 -124 -145 -269
-333 -269 -348 0 -5 -3 -11 -8 -13 -4 -1 -27 -34 -52 -73 -25 -38 -48 -71 -52
-73 -5 -2 -8 -8 -8 -13 0 -5 -15 -32 -33 -61 -45 -71 -169 -300 -172 -318 -1
-3 -11 -25 -23 -50 -11 -25 -27 -60 -34 -77 -7 -18 -16 -33 -20 -33 -5 0 -7
-3 -6 -7 2 -10 -10 -49 -27 -88 -18 -40 -37 -87 -41 -100 -1 -5 -19 -57 -38
-115 -20 -58 -36 -105 -36 -105 1 0 -1 -7 -4 -15 -5 -14 -42 -146 -52 -182
-11 -44 -15 -64 -19 -83 -2 -11 -10 -54 -19 -95 -25 -123 -32 -159 -41 -225
-3 -22 -8 -55 -10 -73 -8 -51 -17 -124 -20 -157 -26 -246 -25 -724 1 -930 3
-22 7 -56 9 -75 7 -59 13 -104 19 -135 3 -16 8 -48 11 -70 3 -22 8 -51 11 -65
12 -51 16 -76 17 -97 1 -13 5 -23 10 -23 4 0 7 -10 7 -22 0 -13 13 -72 29
-133 16 -60 27 -113 24 -117 -2 -5 0 -8 5 -8 5 0 9 -7 10 -15 1 -8 3 -22 4
-30 1 -8 4 -15 8 -15 3 0 6 -9 7 -19 1 -11 15 -58 31 -104 17 -47 27 -88 24
-91 -3 -3 0 -6 6 -6 7 0 11 -3 10 -7 -2 -8 37 -117 69 -193 55 -130 145 -314
157 -322 6 -4 7 -8 3 -8 -5 0 5 -24 21 -52 17 -29 39 -69 50 -88 40 -71 66
-115 73 -120 3 -3 9 -15 13 -28 4 -12 12 -22 17 -22 5 0 9 -5 9 -11 0 -5 20
-39 45 -75 25 -35 45 -68 45 -73 0 -5 4 -11 8 -13 5 -2 23 -25 42 -53 18 -27
36 -52 40 -55 3 -3 21 -25 40 -50 19 -25 39 -48 45 -52 5 -4 7 -8 2 -8 -4 0 1
-8 10 -18 36 -37 83 -92 83 -96 0 -2 23 -28 51 -58 246 -258 335 -341 534
-497 139 -109 143 -111 153 -111 5 0 12 -7 16 -15 3 -8 12 -15 21 -15 8 0 15
-4 15 -8 0 -4 26 -23 58 -42 31 -19 59 -37 62 -40 7 -7 64 -44 70 -45 6 -1 70
-40 85 -52 6 -4 33 -19 60 -33 28 -14 52 -28 55 -31 9 -11 355 -177 385 -185
6 -1 33 -12 60 -24 73 -31 84 -36 146 -60 31 -12 63 -23 70 -24 8 -2 21 -6 29
-9 20 -8 190 -62 257 -81 28 -8 54 -12 57 -9 3 4 6 1 6 -5 0 -7 8 -12 18 -12
11 0 52 -9 93 -19 42 -11 88 -22 105 -25 16 -2 40 -8 54 -11 14 -3 39 -8 55
-11 17 -3 41 -7 55 -10 52 -10 66 -13 105 -18 22 -3 51 -8 65 -11 54 -11 146
-23 225 -30 28 -2 73 -7 100 -9 236 -22 695 -28 910 -12 232 16 268 21 285 31
9 6 11 4 5 -5 -5 -8 -4 -11 2 -7 10 6 36 11 113 22 66 9 110 16 134 21 11 2
37 7 56 10 19 3 55 10 80 16 25 5 56 12 70 14 14 3 52 12 85 20 33 8 69 17 81
19 12 3 39 11 62 19 22 8 43 12 46 9 3 -4 6 -2 6 4 0 5 6 10 13 11 28 2 157
42 172 52 6 4 26 11 45 15 19 4 40 11 45 14 6 4 48 23 95 41 168 66 523 240
579 284 14 11 25 17 93 55 24 13 45 26 48 30 3 3 35 26 72 49 36 24 79 54 95
68 15 13 31 24 35 24 4 0 13 6 20 13 7 7 20 18 29 23 9 5 35 25 59 44 23 19
61 50 84 69 101 82 170 145 301 276 133 134 161 164 230 250 17 21 39 47 50
59 11 11 36 44 55 71 19 28 38 52 41 55 14 10 119 162 119 171 0 5 4 9 10 9 5
0 17 17 27 38 9 20 21 42 25 47 18 22 59 88 89 143 18 31 38 66 46 78 7 11 10
24 6 27 -3 4 -1 7 5 7 6 0 16 16 23 35 7 19 17 35 21 35 4 0 8 9 8 20 0 11 5
20 10 20 6 0 10 9 10 20 0 11 5 20 10 20 6 0 10 8 10 18 0 10 4 22 9 28 9 9
81 169 85 189 2 6 9 24 16 40 31 72 40 95 70 190 17 55 36 109 41 120 5 11 11
29 12 40 2 11 7 27 10 35 3 8 15 53 27 100 28 106 26 97 35 148 4 23 12 45 16
48 5 3 7 9 4 14 -3 5 1 37 9 72 8 35 17 83 21 108 3 25 8 52 10 60 2 8 7 38
10 65 3 28 8 68 10 90 36 269 41 729 10 960 -2 17 -7 55 -10 85 -16 123 -24
175 -56 330 -23 112 -27 126 -33 148 -3 9 -7 28 -10 42 -3 14 -16 62 -29 108
-14 45 -25 85 -26 87 -2 14 -43 137 -61 185 -12 30 -22 57 -22 60 -1 6 -7 23
-30 85 -20 51 -30 76 -67 157 -11 26 -21 52 -21 58 0 5 -4 10 -10 10 -5 0 -10
7 -10 15 0 9 -7 27 -16 40 -9 14 -13 25 -9 25 4 0 2 6 -4 13 -6 8 -33 57 -60
109 -56 108 -74 141 -81 148 -3 3 -14 22 -25 43 -11 20 -23 37 -28 37 -4 0 -5
5 -2 10 3 6 1 10 -4 10 -6 0 -11 5 -11 11 0 39 -394 569 -423 569 -6 0 -8 3
-4 6 3 3 -20 33 -51 66 -72 77 -272 278 -272 273 0 -2 -18 14 -40 36 -21 21
-42 39 -45 39 -3 0 -13 8 -23 18 -10 9 -33 29 -52 44 -19 14 -58 44 -86 66
-136 107 -420 291 -584 380 -171 92 -454 227 -468 223 -1 -1 -25 10 -52 24
-28 14 -50 22 -50 19 0 -4 -7 0 -16 7 -9 7 -23 14 -32 15 -9 2 -25 7 -37 13
-32 15 -175 67 -240 86 -33 10 -62 19 -65 20 -3 1 -18 5 -35 9 -16 4 -50 16
-76 26 -25 10 -76 26 -115 34 -67 15 -94 20 -179 32 -22 3 -51 13 -64 21 -13
8 -20 10 -16 4 11 -18 -55 25 -93 60 -47 45 -98 166 -119 284 -3 17 -8 32 -11
35 -4 3 -7 16 -8 30 0 14 -4 43 -8 65 -24 137 -25 171 -9 235 15 62 19 186 8
240 -3 14 -8 57 -10 95 -6 101 -15 244 -19 287 -4 42 -19 68 -70 123 -20 20
-33 41 -31 46 7 10 -50 54 -88 68 -15 6 -45 13 -66 16 -21 2 -50 9 -65 15 -14
5 -38 15 -53 21 l-27 10 34 21 c50 31 101 89 146 166 22 36 39 69 39 72 0 3 4
11 8 18 5 6 6 12 3 12 -3 0 -1 12 5 28 15 35 18 156 6 207 -5 22 -10 48 -12
58 -2 10 -16 44 -31 75 -15 31 -26 60 -26 65 1 4 -2 7 -8 7 -5 0 -10 6 -10 14
0 7 -28 41 -62 75 -115 114 -264 161 -393 123z m215 -64 c25 -12 47 -22 50
-22 10 -2 76 -52 112 -85 30 -27 125 -188 118 -199 -1 -1 2 -21 5 -45 13 -74
7 -150 -16 -217 -12 -36 -27 -68 -33 -72 -6 -4 -7 -8 -3 -8 10 0 -49 -88 -82
-121 -41 -41 -130 -101 -140 -95 -5 3 -26 8 -47 11 -22 2 -64 7 -94 11 -30 3
-91 6 -135 6 l-79 1 -83 83 c-46 46 -82 87 -81 92 1 4 -4 23 -11 42 -28 71
-33 157 -16 248 17 85 35 127 81 187 137 180 310 250 454 183z"/>
</g>
</svg>
